<?xml version="1.0" encoding="UTF-8"?>
<!-- Created with Inkscape (http://www.inkscape.org/) -->
<svg width="210mm" height="150mm" version="1.1" viewBox="0 0 210 150" xml:space="preserve" xmlns="http://www.w3.org/2000/svg"><g fill="none" stroke="#fefefe" stroke-linecap="round" stroke-linejoin="round" stroke-width="4.6059"><path d="m96.647 41.531c0-10.92-7.5165-17.631-16.665-17.631h-41.702c-19.528 0-28.338 11.958-28.338 26.716v61.845c0 17.937 13.291 26.522 28.144 26.522h31.51c7.5225 0 14.713-13.533 16.145-18.877l23.223-82.181c2.2923-8.5549 8.5928-14.267 17.297-14.267h52.743c10.19 0 21.857 7.8201 21.857 21.857v3.019"/><path d="m130.28 23.658 5.8568-15.517h28.861l5.8568 15.517"/><path d="m120.2 79.69c0 41.683 60.5 41.341 60.5-0.48302 0-37.335-60.5-38.409-60.5 0.48302z"/><path d="m131.73 85.668c0 19.133 37.677 18.686 37.677 0"/><path d="m101.32 114.16c0 14.462 14.397 24.421 23.14 24.421h52.642c10.607 0 23.952-12.522 23.952-24.421"/></g></svg>
